<svg viewBox="0 0 59 46" fill="none" xmlns="http://www.w3.org/2000/svg">
  <path
    d="M31.2861 36.0443L32.6364 44.0614C31.7801 44.5214 30.3969 44.9486 28.5527 45.3429C26.6755 45.77 24.469 46 21.9332 46C14.6551 45.8686 9.18824 43.7 5.5327 39.56C1.84424 35.3871 0 30.0971 0 23.69C0.164664 16.1 2.37116 10.2843 6.58655 6.21C10.9337 2.10286 16.3346 0 22.8553 0C25.3253 0 27.4659 0.230001 29.2443 0.624286C31.0227 1.01857 32.34 1.44571 33.1962 1.93857L31.2861 10.12L27.7953 9.00286C26.4779 8.67428 24.963 8.51 23.2176 8.51C19.3974 8.47714 16.2359 9.69286 13.7659 12.1243C11.263 14.5229 9.97863 18.2029 9.87983 23.0986C9.87983 27.5671 11.0983 31.05 13.4366 33.6129C15.7748 36.1429 19.0681 37.4571 23.2835 37.49L27.6635 37.0957C29.0796 36.8329 30.2652 36.4714 31.2861 36.0443ZM16.1874 20.1571H22.774V13.5856H29.3605V20.1571H35.9471V26.7285H29.3605V33.2999H22.774V26.7285H16.1874V20.1571ZM39.2403 20.1571H45.8269V13.5856H52.4134V20.1571H59V26.7285H52.4134V33.2999H45.8269V26.7285H39.2403V20.1571Z"
    fill="#0277BD"
  />
</svg>
