<svg viewBox="0 0 57 57" fill="none" xmlns="http://www.w3.org/2000/svg">
  <path
    d="M55.2459 10.6617L29.3643 0.428907C28.8111 0.209962 28.1889 0.209962 27.6357 0.428907L1.7541 10.6617C1.74258 10.6617 0.325195 11.1572 0.267578 12.8512V45.9465C0.267578 46.9605 0.924414 47.8709 1.89238 48.182L27.774 56.6172C27.8086 56.6287 28.1197 56.7324 28.5 56.7324C28.9033 56.7324 29.1914 56.6287 29.226 56.6172L55.1076 48.182C56.0756 47.8709 56.7324 46.9605 56.7324 45.9465V12.8512C56.6518 11.1572 55.2574 10.6617 55.2459 10.6617ZM26.1492 51.1436L4.96914 44.241V16.0893L26.1492 22.9918V51.1436ZM28.5 18.8088L9.55547 12.6322L28.5 5.14199L47.4445 12.6322L28.5 18.8088ZM52.0309 44.241L30.8623 51.1436V22.9918L52.0078 16.1008H52.0193V44.241H52.0309Z"
    fill="currentColor"
  />
  <path
    d="M28.7996 10.823H28.0045C26.5756 10.823 25.4232 11.9754 25.4232 13.4043C25.4232 14.8332 26.5756 15.9855 28.0045 15.9855H28.7996C30.2285 15.9855 31.3809 14.8332 31.3809 13.4043C31.3809 11.9754 30.2285 10.823 28.7996 10.823Z"
    fill="currentColor"
  />
  <path
    d="M37.2463 32.7176C35.5984 32.7176 34.2732 34.0543 34.2732 35.6906C34.2732 37.3385 35.61 38.6637 37.2463 38.6637C38.8941 38.6637 40.2193 37.3269 40.2193 35.6906C40.2309 34.0428 38.8941 32.7176 37.2463 32.7176Z"
    fill="currentColor"
  />
  <path
    d="M45.6353 28.5576C43.9875 28.5576 42.6623 29.8943 42.6623 31.5307C42.6623 33.1785 43.999 34.5037 45.6353 34.5037C47.2832 34.5037 48.6084 33.167 48.6084 31.5307C48.6084 29.8943 47.2717 28.5576 45.6353 28.5576Z"
    fill="currentColor"
  />
  <path
    d="M18.1865 31.6689C19.8344 31.6689 21.1596 30.3322 21.1596 28.6959C21.1596 27.0481 19.8228 25.7229 18.1865 25.7229C16.5387 25.7229 15.2135 27.0596 15.2135 28.6959C15.2135 30.3438 16.5387 31.6689 18.1865 31.6689Z"
    fill="currentColor"
  />
  <path
    d="M11.0535 38.4908C12.7014 38.4908 14.0266 37.1541 14.0266 35.5178C14.0266 33.8699 12.6898 32.5447 11.0535 32.5447C9.40567 32.5447 8.08047 33.8814 8.08047 35.5178C8.08047 37.1541 9.41719 38.4908 11.0535 38.4908Z"
    fill="currentColor"
  />
  <path
    d="M20.0648 35.5524C18.417 35.5524 17.0918 36.8891 17.0918 38.5254C17.0918 40.1732 18.4285 41.4984 20.0648 41.4984C21.7127 41.4984 23.0379 40.1617 23.0379 38.5254C23.0379 36.8891 21.7127 35.5524 20.0648 35.5524Z"
    fill="currentColor"
  />
</svg>
