<svg viewBox="0 0 54 53" fill="none" xmlns="http://www.w3.org/2000/svg">
  <path
    d="M26.909 16.34C21.466 16.34 17.038 20.768 17.038 26.211C17.038 31.654 21.466 36.082 26.909 36.082C32.352 36.082 36.78 31.654 36.78 26.211C36.78 20.768 32.353 16.34 26.909 16.34ZM26.909 32.682C23.341 32.682 20.438 29.778 20.438 26.211C20.438 22.643 23.34 19.74 26.909 19.74C30.475 19.74 33.38 22.642 33.38 26.211C33.38 29.777 30.476 32.682 26.909 32.682Z"
    fill="currentColor"
  />
  <path
    d="M45.392 5.813L38.417 9.842C37.446 9.156 36.413 8.561 35.331 8.061V0H18.487V8.061C17.479 8.528 16.508 9.082 15.589 9.715L8.653 5.604L0.0669994 20.092L7.003 24.201C6.925 24.91 6.888 25.574 6.888 26.211C6.888 26.785 6.917 27.369 6.98 27.996L0 32.027L8.422 46.611L15.401 42.58C16.374 43.266 17.405 43.861 18.489 44.361V52.422H35.333V44.361C36.341 43.894 37.31 43.34 38.229 42.707L45.165 46.818L53.751 32.33L46.817 28.221C46.895 27.516 46.932 26.85 46.932 26.211C46.932 25.635 46.903 25.053 46.84 24.426L53.82 20.395L45.392 5.813ZM43.159 22.625L43.329 23.768C43.466 24.696 43.532 25.471 43.532 26.211C43.532 27.008 43.456 27.867 43.3 28.842L43.118 29.983L49.091 33.522L43.972 42.161L37.999 38.62L37.085 39.333C35.841 40.302 34.468 41.087 33.007 41.663L31.931 42.087V49.023H21.886V42.089L20.812 41.663C19.279 41.058 17.857 40.235 16.582 39.22L15.676 38.497L9.666 41.968L4.645 33.273L10.661 29.798L10.491 28.655C10.354 27.727 10.288 26.952 10.288 26.212C10.288 25.411 10.362 24.573 10.52 23.577L10.698 22.438L4.727 18.901L9.846 10.262L15.819 13.805L16.733 13.092C17.981 12.121 19.354 11.336 20.813 10.76L21.887 10.336V3.4H31.932V10.334L33.008 10.76C34.537 11.365 35.961 12.188 37.237 13.203L38.145 13.926L44.153 10.457L49.176 19.15L43.159 22.625Z"
    fill="currentColor"
  />
</svg>
