<svg viewBox="0 0 32 33" fill="none" xmlns="http://www.w3.org/2000/svg">
  <path
    d="M22.1026 31.2429V27.1219C22.1564 26.4373 22.0639 25.7489 21.8312 25.1027C21.5984 24.4566 21.2308 23.8673 20.7528 23.3742C25.2615 22.8716 30 21.1629 30 13.3229C29.9996 11.3182 29.2285 9.39028 27.8462 7.9383C28.5006 6.18437 28.4544 4.24568 27.7169 2.52497C27.7169 2.52497 26.0226 2.0224 22.1026 4.6501C18.8115 3.75815 15.3424 3.75815 12.0513 4.6501C8.13128 2.0224 6.43692 2.52497 6.43692 2.52497C5.6994 4.24568 5.65312 6.18437 6.30769 7.9383C4.91504 9.40105 4.1431 11.3464 4.15384 13.366C4.15384 21.1486 8.89229 22.8573 13.401 23.4173C12.9286 23.9055 12.5643 24.4876 12.3317 25.1259C12.0992 25.7641 12.0036 26.4443 12.0513 27.1219V31.2429"
    stroke="currentColor"
    stroke-width="3"
    stroke-linecap="round"
    stroke-linejoin="round"
  />
  <path
    d="M12.0513 28.371C7.74359 29.7684 4.15385 28.371 2 24.0633"
    stroke="currentColor"
    stroke-width="3"
    stroke-linecap="round"
    stroke-linejoin="round"
  />
</svg>
