<svg viewBox="0 0 63 45" fill="none" xmlns="http://www.w3.org/2000/svg">
  <path
    d="M39.041 31.4689C39.8553 33.1266 41.1188 34.52 42.6863 35.489C44.2538 36.4579 46.0617 36.9631 47.9023 36.9464C51.6242 36.9464 54.0023 35.0775 54.0023 32.4969C54.0023 29.4049 51.5586 28.3084 47.4639 26.508L45.2171 25.5406C38.7365 22.7676 34.4293 19.2933 34.4293 11.9495C34.4293 5.18301 39.5633 0.0349678 47.5847 0.0349678C50.188 -0.154741 52.7894 0.430464 55.0634 1.71742C57.3374 3.00437 59.1832 4.93597 60.37 7.2707L53.3749 11.7808C52.9169 10.6239 52.1192 9.63433 51.0877 8.94362C50.0563 8.2529 48.84 7.89374 47.6004 7.91387C47.0601 7.85928 46.5144 7.91836 45.9981 8.08734C45.4818 8.25632 45.0062 8.5315 44.6017 8.89533C44.1972 9.25916 43.8726 9.70366 43.6487 10.2005C43.4247 10.6973 43.3063 11.2355 43.301 11.7808C43.301 14.488 44.9704 15.5819 48.8131 17.2584L51.0599 18.2231C58.6927 21.5102 63 24.8605 63 32.3941C63 40.5155 56.648 44.965 48.1149 44.965C44.791 45.1774 41.477 44.4193 38.5727 42.7822C35.6683 41.1452 33.2976 38.6991 31.7467 35.7392L39.041 31.4689ZM7.31264 32.2597C8.72477 34.7744 10.0083 36.899 13.0872 36.899C16.0374 36.899 17.901 35.7392 17.901 31.2316V0.562161H26.883V31.3582C26.883 40.6974 21.4287 44.9492 13.4704 44.9492C10.6592 45.1021 7.86783 44.3967 5.46347 42.9259C3.05912 41.4551 1.15443 39.2878 0 36.7092L7.31264 32.2597Z"
    fill="#F5DE19"
  />
</svg>
