<svg viewBox="0 0 1023 1022" fill="none" xmlns="http://www.w3.org/2000/svg">
  <path
    d="M135 110C135 123.807 123.807 135 110 135C96.1929 135 85 123.807 85 110C85 96.1929 96.1929 85 110 85C123.807 85 135 96.1929 135 110Z"
    fill="currentColor"
  />
  <path
    d="M135 110C135 123.807 123.807 135 110 135C96.1929 135 85 123.807 85 110C85 96.1929 96.1929 85 110 85C123.807 85 135 96.1929 135 110Z"
    fill="currentColor"
  />
  <path
    d="M216 110C216 123.807 204.807 135 191 135C177.193 135 166 123.807 166 110C166 96.1929 177.193 85 191 85C204.807 85 216 96.1929 216 110Z"
    fill="currentColor"
  />
  <path
    d="M297 110C297 123.807 285.807 135 272 135C258.193 135 247 123.807 247 110C247 96.1929 258.193 85 272 85C285.807 85 297 96.1929 297 110Z"
    fill="currentColor"
  />
  <path d="M593 85H941V135H593V85Z" fill="currentColor" />
  <path
    d="M696.09 836.4H648.15L851.416 597.467L648.15 362.8H696.09L903.191 597.467L696.09 836.4Z"
    fill="currentColor"
  />
  <path d="M97.7977 911.067L243.536 290.267H283.805L134.232 911.067H97.7977Z" fill="currentColor" />
  <path
    d="M510.082 362.8L304.899 599.6L510.082 834.267H559.94L356.674 599.6L559.94 362.8H510.082Z"
    fill="currentColor"
  />
  <path
    fill-rule="evenodd"
    clip-rule="evenodd"
    d="M991.5 184.5H31.5V30.5H991.5L1022.5 0H0V1022H1022.5V0L991.5 30.5V184.5ZM31.5 991.5H991.5V217H31.5V991.5Z"
    fill="currentColor"
  />
</svg>
