<svg viewBox="0 0 56 55" fill="none" xmlns="http://www.w3.org/2000/svg">
  <path
    d="M42.3834 14.9386C43.654 14.8338 46.2586 15.5675 46.5127 19.3407C46.5127 20.3888 45.7504 22.6737 42.7011 23.4283C41.328 23.5331 38.4857 22.8623 38.1004 19.3407C37.7151 15.819 40.7952 14.9386 42.3834 14.9386Z"
    stroke="currentColor"
    stroke-width="3"
  />
  <path
    d="M23.9603 11.1654C23.9603 9.69808 24.8497 6.82626 28.4072 7.0778C31.9648 7.32935 32.4307 10.3269 32.2189 11.7943C32.2189 12.8424 31.3931 15.0015 28.0896 15.2531C24.7861 15.5046 23.9603 12.6328 23.9603 11.1654Z"
    stroke="currentColor"
    stroke-width="3"
  />
  <path
    d="M14.1134 15.8819C15.384 15.7771 18.2427 16.5108 18.5604 19.6551C18.9713 23.7225 15.0663 24.3716 14.1134 24.3716C13.1605 24.3716 10.3017 23.4283 9.98409 20.284C9.66645 17.1397 12.8428 15.7712 14.1134 15.8819Z"
    stroke="currentColor"
    stroke-width="3"
  />
  <path
    fill-rule="evenodd"
    clip-rule="evenodd"
    d="M2.04308 27.5159C2.67836 30.0314 3.94892 32.5469 8.07824 31.918L14.1134 30.0314C15.1722 29.5073 17.798 29.2139 19.8309 32.2324C21.8638 35.251 20.0427 37.8922 18.878 38.8355L17.2898 40.7221C16.231 42.5039 14.6216 46.6334 16.6545 48.8974C19.1957 51.7273 21.1015 52.6706 28.0896 52.985C35.0777 53.2994 43.3363 48.5829 44.6069 47.3252C45.8775 46.0675 52.2303 39.7788 53.1832 34.119C54.1361 28.4592 54.8081 25.0975 51.9126 17.4541C49.0539 9.9077 40.4776 4.87677 37.9365 3.93347C35.3953 2.99018 28.4072 0.47473 20.1486 3.30461C13.7958 5.48144 9.13705 10.0125 8.07824 11.4798C5.643 14.4146 1.53485 20.9757 2.04308 27.5159ZM18.5604 19.6551C18.2427 16.5108 15.384 15.7771 14.1134 15.8819C12.8428 15.7712 9.66645 17.1397 9.98409 20.284C10.3017 23.4283 13.1605 24.3716 14.1134 24.3716C15.0663 24.3716 18.9713 23.7225 18.5604 19.6551ZM28.4072 7.0778C24.8497 6.82626 23.9603 9.69808 23.9603 11.1654C23.9603 12.6328 24.7861 15.5046 28.0896 15.2531C31.3931 15.0015 32.2189 12.8424 32.2189 11.7943C32.4307 10.3269 31.9648 7.32935 28.4072 7.0778ZM46.5127 19.3407C46.2586 15.5675 43.654 14.8338 42.3834 14.9386C40.7952 14.9386 37.7151 15.819 38.1004 19.3407C38.4857 22.8623 41.328 23.5331 42.7011 23.4283C45.7504 22.6737 46.5127 20.3888 46.5127 19.3407ZM46.5127 36.0056C46.2586 32.2324 43.2305 31.7084 41.7481 31.918C40.6893 32.0228 38.4775 32.8613 38.1004 35.3767C37.7234 37.8922 39.7398 39.3596 40.7952 39.7788C42.8069 40.0932 46.7669 39.7788 46.5127 36.0056ZM31.5836 43.552C31.8377 39.5273 28.7249 38.7307 27.1367 38.8355C25.6543 38.8355 22.7532 39.5273 23.0073 43.552C23.325 48.5829 31.5836 47.6396 31.5836 43.552Z"
    stroke="currentColor"
    stroke-width="3"
  />
  <path
    d="M41.7481 31.918C43.2305 31.7084 46.2586 32.2324 46.5127 36.0056C46.7669 39.7788 42.8069 40.0932 40.7952 39.7788C39.7398 39.3596 37.7234 37.8922 38.1004 35.3767C38.4775 32.8613 40.6893 32.0228 41.7481 31.918Z"
    stroke="currentColor"
    stroke-width="3"
  />
  <path
    d="M27.1367 38.8355C28.7249 38.7307 31.8377 39.5273 31.5836 43.552C31.5836 47.6396 23.325 48.5829 23.0073 43.552C22.7532 39.5273 25.6543 38.8355 27.1367 38.8355Z"
    stroke="currentColor"
    stroke-width="3"
  />
</svg>
