<svg viewBox="0 0 51 51" fill="none" xmlns="http://www.w3.org/2000/svg">
  <path
    d="M24.2108 50.5009C18.0566 50.2773 14.2474 48.4523 13.2783 45.2631L13.1656 44.8925L13.1498 38.6403C13.1318 31.4846 13.1381 31.3397 13.519 30.2003C14.2141 28.1212 15.8577 26.7806 18.4282 26.1963L18.9965 26.0671L26.0642 26.0358C31.1279 26.0134 33.2275 25.988 33.469 25.9464C34.8842 25.7024 35.8126 25.337 36.6842 24.681C37.7255 23.8974 38.5849 22.556 38.969 21.1152C39.2575 20.033 39.2497 20.1513 39.2809 16.35L39.3099 12.8162H41.8552H44.4006L44.8948 12.9542C47.543 13.6937 49.4656 16.2027 50.2841 19.9871C50.5989 21.4427 50.6022 21.4965 50.6028 25.2098C50.6033 28.8235 50.6017 28.8551 50.3492 30.0405C50.1011 31.2056 49.7763 32.1536 49.2908 33.1295C48.3119 35.0976 46.8684 36.4296 45.0431 37.0493C44.0004 37.4033 44.8732 37.3737 34.6146 37.403L25.3723 37.4294V38.2696V39.1098L31.5009 39.1346L37.6295 39.1593L37.6542 42.1741C37.6678 43.8323 37.6618 45.3313 37.641 45.5052C37.5906 45.9259 37.4121 46.4251 37.1568 46.8598C36.8938 47.3075 36.0956 48.1082 35.5537 48.4678C33.9077 49.5602 31.3982 50.226 28.0906 50.448C26.9777 50.5227 25.4018 50.5442 24.2108 50.5009ZM32.7118 46.5942C33.8931 46.4027 34.7387 45.2466 34.5439 44.0893C34.3832 43.1348 33.6463 42.3964 32.6971 42.2391C31.2482 41.999 29.9305 43.3296 30.1883 44.7724C30.3759 45.8219 31.2174 46.5608 32.3164 46.6409C32.3571 46.6438 32.5351 46.6228 32.7118 46.5942ZM6.37748 37.6764C4.98733 37.4237 3.61834 36.5811 2.65096 35.3829C0.818615 33.1134 -0.106384 29.3297 0.00973692 24.5791C0.0821009 21.6187 0.524679 19.4211 1.42502 17.5516C2.58555 15.1419 4.31954 13.7129 6.66036 13.237C7.17309 13.1328 7.19879 13.1325 16.2293 13.1361C21.2094 13.1381 25.3206 13.1257 25.3652 13.1086C25.4361 13.0814 25.4464 12.9712 25.4464 12.2425C25.4464 11.7833 25.4408 11.4022 25.4341 11.3957C25.4273 11.3892 22.6638 11.3725 19.2931 11.3586L13.1645 11.3334L13.1518 8.1482C13.1378 4.65953 13.135 4.69999 13.4337 4.05929C14.4691 1.8382 17.5192 0.488727 22.4068 0.0892757C22.7602 0.0603955 23.7166 0.0236941 24.5321 0.00771177C29.9432 -0.0983355 33.9125 0.891114 35.999 2.86612C36.2301 3.08492 36.5313 3.41151 36.6684 3.59187C36.9799 4.00199 37.3678 4.78496 37.5163 5.30367L37.6295 5.69907V12.2725C37.6295 18.4084 37.6235 18.8772 37.5401 19.3154C37.4324 19.881 37.1737 20.6756 36.9582 21.1032C36.2118 22.5834 34.8366 23.6499 33.0137 24.1621C31.83 24.4947 32.3676 24.4728 24.5321 24.5068C16.7507 24.5406 17.2208 24.5225 16.1299 24.8308C14.0111 25.4296 12.4545 27.0799 11.8221 29.398C11.5379 30.4401 11.5442 30.3427 11.513 34.1674L11.4841 37.726L9.1117 37.7341C7.32081 37.7402 6.65065 37.7261 6.37748 37.6764ZM19.332 8.10893C20.2315 7.68638 20.7731 6.69588 20.6103 5.77145C20.4601 4.91873 19.8746 4.23819 19.0799 3.99275C17.81 3.60051 16.4849 4.40993 16.2506 5.72105C16.06 6.78737 16.6767 7.82546 17.7197 8.19406C17.9528 8.27644 18.1027 8.29313 18.5023 8.28124C18.9376 8.26829 19.0365 8.24775 19.332 8.10893Z"
    fill="#3571A3"
  />
  <path
    d="M6.37748 37.6764C4.98733 37.4237 3.61835 36.5811 2.65096 35.3829C0.818615 33.1134 -0.106384 29.3297 0.00973692 24.5791C0.0821009 21.6187 0.524679 19.4211 1.42502 17.5516C2.58555 15.1419 4.31954 13.7129 6.66036 13.237C7.17309 13.1328 7.19879 13.1325 16.2293 13.1361C21.2094 13.1381 25.3206 13.1257 25.3652 13.1086C25.4361 13.0814 25.4464 12.9712 25.4464 12.2425C25.4464 11.7833 25.4408 11.4022 25.4341 11.3957C25.4273 11.3892 22.6638 11.3725 19.2931 11.3586L13.1645 11.3334L13.1518 8.1482C13.1378 4.65953 13.135 4.69999 13.4337 4.05929C14.4691 1.8382 17.5192 0.488727 22.4068 0.0892757C22.7602 0.0603955 23.7166 0.0236941 24.5321 0.00771177C29.9432 -0.0983355 33.9125 0.891114 35.999 2.86612C36.2301 3.08492 36.5313 3.41151 36.6684 3.59187C36.9799 4.00199 37.3678 4.78496 37.5163 5.30367L37.6295 5.69907V12.2725C37.6295 18.4084 37.6235 18.8772 37.5401 19.3154C37.4324 19.881 37.1737 20.6756 36.9582 21.1032C36.2118 22.5834 34.8367 23.6499 33.0137 24.1621C31.83 24.4947 32.3676 24.4728 24.5321 24.5068C16.7507 24.5406 17.2208 24.5225 16.1299 24.8308C14.0111 25.4296 12.4545 27.0799 11.8221 29.398C11.5379 30.4401 11.5442 30.3427 11.513 34.1674L11.4841 37.726L9.11171 37.7341C7.32081 37.7402 6.65065 37.7261 6.37748 37.6764ZM19.332 8.10893C20.2315 7.68638 20.7731 6.69588 20.6103 5.77145C20.4601 4.91873 19.8746 4.23819 19.0799 3.99275C17.81 3.60051 16.4849 4.40993 16.2506 5.72105C16.06 6.78737 16.6767 7.82546 17.7197 8.19406C17.9528 8.27644 18.1027 8.29313 18.5023 8.28124C18.9376 8.26829 19.0365 8.24775 19.332 8.10893Z"
    fill="#3571A3"
  />
</svg>
