<svg viewBox="0 0 52 52" fill="none" xmlns="http://www.w3.org/2000/svg">
  <path
    fill-rule="evenodd"
    clip-rule="evenodd"
    d="M52 26L48.9412 26C48.9412 38.6513 38.6513 48.9412 26 48.9412C13.3487 48.9412 3.05882 38.6513 3.05882 26C3.05882 13.3487 13.3487 3.05882 26 3.05882C33.2341 3.05882 39.9727 6.48776 44.3009 12.2353L33.6471 12.2353L33.6471 15.2941L48.9412 15.2941L48.9412 3.68099e-06L45.8824 3.54729e-06L45.8824 9.28661C40.9668 3.44116 33.7266 3.01594e-06 26 2.6782e-06C11.6633 2.05152e-06 -5.09819e-07 11.6633 -1.1365e-06 26C-1.76317e-06 40.3367 11.6633 52 26 52C40.3367 52 52 40.3367 52 26Z"
    fill="currentColor"
  />
</svg>
